<svg width="36" height="36" viewBox="0 0 36 36" fill="none" xmlns="http://www.w3.org/2000/svg">
<g opacity="0.3">
<path opacity="0.3" d="M25.1393 7.38719C24.1553 7.3864 23.2118 7.06027 22.516 6.48042C21.8202 5.90057 21.4289 5.11434 21.4279 4.2943V2.78769e-07H4.84536C4.20915 -0.000196743 3.5791 0.104043 2.99125 0.306799C2.40339 0.509556 1.86925 0.80685 1.4193 1.18168C0.969339 1.5565 0.612404 2.00153 0.36888 2.49134C0.125356 2.98115 -4.39286e-08 3.50613 0 4.03632V28.3683C-4.39286e-08 28.8985 0.125356 29.4235 0.36888 29.9133C0.612404 30.4031 0.969339 30.8482 1.4193 31.223C1.86925 31.5978 2.40339 31.8951 2.99125 32.0978C3.5791 32.3006 4.20915 32.4049 4.84536 32.4047H24.7523C25.3884 32.4047 26.0182 32.3003 26.6059 32.0974C27.1935 31.8946 27.7275 31.5972 28.1773 31.2224C28.627 30.8476 28.9838 30.4027 29.2272 29.913C29.4706 29.4232 29.5959 28.8984 29.5959 28.3683V7.38719H25.1393Z" fill="#5659E9"/>
</g>
<path d="M29.5958 7.38719H25.1393C24.1552 7.3864 23.2118 7.06027 22.516 6.48042C21.8201 5.90057 21.4288 5.11434 21.4279 4.2943V0L29.5958 7.38719Z" fill="#5659E9"/>
<path d="M23.5069 12.559H4.92463C4.7461 12.559 4.57488 12.4999 4.44864 12.3947C4.3224 12.2895 4.25147 12.1468 4.25147 11.998C4.25123 11.9242 4.26848 11.8511 4.3022 11.7829C4.33592 11.7146 4.38547 11.6526 4.448 11.6004C4.51054 11.5481 4.58483 11.5067 4.66662 11.4784C4.74841 11.4501 4.83608 11.4355 4.92463 11.4355H23.5069C23.6859 11.4355 23.8576 11.4948 23.9842 11.6003C24.1108 11.7058 24.1819 11.8488 24.1819 11.998C24.1814 12.1469 24.1101 12.2896 23.9835 12.3948C23.857 12.5 23.6856 12.559 23.5069 12.559V12.559Z" fill="#5659E9"/>
<path d="M23.5069 15.9143H4.92463C4.7461 15.9143 4.57488 15.8552 4.44864 15.75C4.3224 15.6448 4.25147 15.5022 4.25147 15.3534C4.25123 15.2796 4.26848 15.2065 4.3022 15.1382C4.33592 15.07 4.38547 15.008 4.448 14.9557C4.51054 14.9035 4.58483 14.862 4.66662 14.8337C4.74841 14.8055 4.83608 14.7909 4.92463 14.7909H23.5069C23.6859 14.7909 23.8576 14.8501 23.9842 14.9556C24.1108 15.0611 24.1819 15.2042 24.1819 15.3534C24.1814 15.5023 24.1101 15.6449 23.9835 15.7501C23.857 15.8553 23.6856 15.9143 23.5069 15.9143V15.9143Z" fill="#5659E9"/>
<path d="M23.5069 19.2697H4.92463C4.83608 19.2697 4.74841 19.2551 4.66662 19.2268C4.58483 19.1986 4.51054 19.1571 4.448 19.1049C4.38547 19.0526 4.33592 18.9906 4.3022 18.9224C4.26848 18.8541 4.25123 18.781 4.25147 18.7072C4.25147 18.5584 4.3224 18.4158 4.44864 18.3106C4.57488 18.2053 4.7461 18.1462 4.92463 18.1462H23.5069C23.6856 18.1462 23.857 18.2053 23.9835 18.3104C24.1101 18.4156 24.1814 18.5583 24.1819 18.7072C24.1819 18.8564 24.1108 18.9995 23.9842 19.1049C23.8576 19.2104 23.6859 19.2697 23.5069 19.2697Z" fill="#5659E9"/>
<path d="M16.1777 22.625H4.92463C4.83608 22.625 4.74841 22.6105 4.66662 22.5822C4.58483 22.5539 4.51054 22.5124 4.448 22.4602C4.38547 22.4079 4.33592 22.3459 4.3022 22.2777C4.26848 22.2095 4.25123 22.1364 4.25147 22.0626C4.25147 21.9138 4.3224 21.7711 4.44864 21.6659C4.57488 21.5607 4.7461 21.5016 4.92463 21.5016H16.1777C16.3562 21.5016 16.5274 21.5607 16.6537 21.6659C16.7799 21.7711 16.8508 21.9138 16.8508 22.0626C16.8511 22.1364 16.8338 22.2095 16.8001 22.2777C16.7664 22.3459 16.7168 22.4079 16.6543 22.4602C16.5918 22.5124 16.5175 22.5539 16.4357 22.5822C16.3539 22.6105 16.2662 22.625 16.1777 22.625Z" fill="#5659E9"/>
<path d="M33.1093 25.5905H10.6033C9.00682 25.5905 7.71265 26.669 7.71265 27.9994V33.5911C7.71265 34.9215 9.00682 36 10.6033 36H33.1093C34.7058 36 36 34.9215 36 33.5911V27.9994C36 26.669 34.7058 25.5905 33.1093 25.5905Z" fill="#5659E9"/>
<path d="M13.7189 32.0056V33.0961H12.3635V32.0056H13.7189Z" fill="white"/>
<path d="M18.9279 32.0087C18.7025 32.3498 18.3621 32.6283 17.9487 32.8097C17.4835 33.008 16.9663 33.1064 16.444 33.0962H14.3993V28.5859H16.444C16.9667 28.5751 17.4847 28.6714 17.9523 28.8664C18.364 29.0445 18.7034 29.32 18.9279 29.6583C19.1606 30.0184 19.2778 30.4224 19.2681 30.8313C19.2773 31.2416 19.1602 31.6469 18.9279 32.0087V32.0087ZM17.5203 31.7822C17.6667 31.6571 17.78 31.5079 17.8532 31.3441C17.9263 31.1804 17.9576 31.0057 17.9451 30.8313C17.9577 30.6571 17.9264 30.4826 17.8533 30.3191C17.7801 30.1556 17.6667 30.0066 17.5203 29.8818C17.1924 29.6422 16.7641 29.5204 16.3288 29.5428H15.7114V32.1197H16.3306C16.7649 32.1416 17.1922 32.0204 17.5203 31.7822V31.7822Z" fill="white"/>
<path d="M23.973 28.8123C24.3848 29.0072 24.7252 29.2919 24.9575 29.6358C25.201 29.9989 25.3252 30.4092 25.3175 30.8252C25.3258 31.2422 25.2016 31.6536 24.9575 32.0176C24.7244 32.3628 24.3828 32.6486 23.9694 32.8441C23.5486 33.0444 23.0716 33.1479 22.587 33.1441C22.1026 33.1477 21.6256 33.0442 21.2047 32.8441C20.7914 32.649 20.4503 32.3631 20.2184 32.0176C19.9735 31.6538 19.8493 31.2423 19.8584 30.8252C19.8491 30.4091 19.9733 29.9984 20.2184 29.6358C20.4515 29.2918 20.7924 29.0072 21.2047 28.8123C21.6256 28.6123 22.1026 28.5087 22.587 28.5123C23.0727 28.5085 23.5509 28.612 23.973 28.8123V28.8123ZM21.5611 29.8772C21.2956 30.1419 21.1605 30.4807 21.1831 30.8252C21.1604 31.1683 21.2956 31.5057 21.5611 31.7687C21.6904 31.8858 21.849 31.9779 22.0256 32.0386C22.2022 32.0992 22.3926 32.1269 22.5835 32.1196C22.7737 32.1264 22.9634 32.0986 23.1393 32.0379C23.3153 31.9773 23.4733 31.8854 23.6022 31.7687C23.869 31.5062 24.0055 31.1687 23.9838 30.8252C24.0054 30.4822 23.8703 30.1451 23.6058 29.8817C23.4765 29.7645 23.318 29.6723 23.1414 29.6117C22.9647 29.5511 22.7743 29.5234 22.5835 29.5307C22.3931 29.5234 22.2031 29.5507 22.0266 29.6105C21.8501 29.6703 21.6913 29.7613 21.5611 29.8772V29.8772Z" fill="white"/>
<path d="M30.2349 28.9938C30.6914 29.3033 31.0019 29.7374 31.1115 30.2192H29.7256C29.6321 30.0195 29.4683 29.848 29.2558 29.7272C29.0318 29.6057 28.7689 29.5435 28.5016 29.5488C28.3252 29.544 28.1497 29.5732 27.989 29.6341C27.8283 29.695 27.6865 29.7859 27.5747 29.8998C27.324 30.1669 27.1964 30.5 27.2147 30.8387C27.1964 31.1761 27.3241 31.5077 27.5747 31.7732C27.6874 31.8859 27.8295 31.9757 27.9901 32.0357C28.1507 32.0957 28.3257 32.1244 28.5016 32.1196C28.769 32.1256 29.0321 32.0633 29.2558 31.9411C29.4671 31.8226 29.6308 31.6538 29.7256 31.4567H31.1115C31.0001 31.9371 30.6899 32.3698 30.2349 32.6791C29.7453 32.9906 29.1405 33.1498 28.525 33.1291C28.0401 33.1376 27.5613 33.0371 27.1391 32.8381C26.7439 32.6467 26.4234 32.3645 26.2157 32.0252C25.9926 31.653 25.8815 31.2412 25.8918 30.8252C25.8816 30.4093 25.9928 29.9975 26.2157 29.6253C26.4234 29.2859 26.7439 29.0037 27.1391 28.8123C27.5613 28.6133 28.0401 28.5128 28.525 28.5213C29.1437 28.5076 29.7486 28.6748 30.2349 28.9938Z" fill="white"/>
</svg>
