<svg width="26" height="26" viewBox="0 0 26 26" fill="none" xmlns="http://www.w3.org/2000/svg">
<g clip-path="url(#clip0_198_441)">
<path d="M21.5 11.8516C21.6602 11.4336 21.75 10.9766 21.75 10.5C21.75 8.42969 20.0703 6.75 18 6.75C17.2305 6.75 16.5117 6.98438 15.918 7.38281C14.8359 5.50781 12.8164 4.25 10.5 4.25C7.04688 4.25 4.25 7.04688 4.25 10.5C4.25 10.6055 4.25391 10.7109 4.25781 10.8164C2.07031 11.5859 0.5 13.6719 0.5 16.125C0.5 19.2305 3.01953 21.75 6.125 21.75H20.5C23.2617 21.75 25.5 19.5117 25.5 16.75C25.5 14.332 23.7812 12.3125 21.5 11.8516ZM15.8672 14.25H13.3125V18.625C13.3125 18.9688 13.0312 19.25 12.6875 19.25H10.8125C10.4688 19.25 10.1875 18.9688 10.1875 18.625V14.25H7.63281C7.07422 14.25 6.79688 13.5781 7.19141 13.1836L11.3086 9.06641C11.5508 8.82422 11.9492 8.82422 12.1914 9.06641L16.3086 13.1836C16.7031 13.5781 16.4219 14.25 15.8672 14.25Z" fill="black"/>
</g>
<defs>
<clipPath id="clip0_198_441">
<rect width="25" height="25" fill="white" transform="translate(0.5 0.5)"/>
</clipPath>
</defs>
</svg>
