<svg width="19" height="22" viewBox="0 0 19 22" fill="none" xmlns="http://www.w3.org/2000/svg">
<path d="M14.2212 15.6819C13.905 14.7218 13.7434 13.7176 13.7425 12.7069V10.2094C13.7655 8.62684 13.2008 7.09203 12.1575 5.90186C11.1178 4.70981 9.67481 3.94335 8.105 3.74936C7.2375 3.65936 6.355 3.74936 5.5175 4.03311C4.68 4.30186 3.9175 4.75061 3.275 5.34936C2.6293 5.93267 2.11464 6.64628 1.765 7.44311C1.41362 8.23963 1.23022 9.10004 1.22625 9.97061V12.7206C1.22442 13.7272 1.06282 14.7272 0.7475 15.6831L0 17.8944L0.59875 18.7169H4.98C4.98 19.3744 5.24875 20.0169 5.7125 20.4819C6.175 20.9444 6.81875 21.2144 7.4775 21.2144C8.135 21.2144 8.7775 20.9456 9.24125 20.4819C9.705 20.0181 9.975 19.3744 9.975 18.7169H14.3562L14.9538 17.8944L14.2212 15.6819ZM8.35875 19.6156C8.24374 19.7329 8.10668 19.8263 7.95544 19.8905C7.8042 19.9546 7.64177 19.9882 7.4775 19.9894C7.31293 19.9882 7.15021 19.9545 6.99874 19.8901C6.84727 19.8258 6.71005 19.732 6.595 19.6144C6.47747 19.4995 6.38383 19.3624 6.31947 19.2112C6.25511 19.0599 6.2213 18.8975 6.22 18.7331H8.71875C8.72396 18.8971 8.69472 19.0604 8.63293 19.2124C8.57114 19.3644 8.47816 19.5018 8.36 19.6156H8.35875ZM1.465 17.4781L1.92875 16.0856C2.29039 15.0008 2.47731 13.8654 2.4825 12.7219V9.97061C2.4825 9.26686 2.6325 8.57936 2.91625 7.95061C3.2 7.30811 3.60375 6.73936 4.1275 6.27561C4.65125 5.79811 5.265 5.43811 5.9225 5.22936C6.595 5.00436 7.2975 4.92936 7.985 5.00436C9.24502 5.17004 10.4003 5.79282 11.2312 6.75436C12.0625 7.7171 12.5093 8.95264 12.4862 10.2244V12.7369C12.4862 13.8731 12.6663 15.0094 13.04 16.1006L13.5038 17.4919H1.46625V17.4769L1.465 17.4781Z" fill="white"/>
<rect x="7.89624" y="1.28564" width="10" height="9" rx="4.5" fill="#FFDCDC" stroke="white"/>
<path d="M11.8144 8.78564L13.4864 6.50564L13.7584 6.36164C13.6944 6.46831 13.6171 6.56164 13.5264 6.64164C13.4358 6.72164 13.3238 6.78298 13.1904 6.82564C13.0624 6.86831 12.9051 6.88964 12.7184 6.88964C12.3984 6.88964 12.1024 6.81231 11.8304 6.65764C11.5638 6.50298 11.3504 6.28964 11.1904 6.01764C11.0304 5.74031 10.9504 5.42831 10.9504 5.08164C10.9504 4.72431 11.0384 4.40164 11.2144 4.11364C11.3904 3.82031 11.6251 3.58831 11.9184 3.41764C12.2118 3.24164 12.5371 3.15364 12.8944 3.15364C13.2571 3.15364 13.5851 3.23898 13.8784 3.40964C14.1718 3.58031 14.4038 3.80964 14.5744 4.09764C14.7451 4.38031 14.8304 4.70031 14.8304 5.05764C14.8304 5.54831 14.6598 6.03631 14.3184 6.52164L12.6864 8.78564H11.8144ZM12.8944 6.29764C13.1184 6.29764 13.3184 6.24431 13.4944 6.13764C13.6758 6.02564 13.8171 5.87898 13.9184 5.69764C14.0251 5.51098 14.0784 5.30564 14.0784 5.08164C14.0784 4.84698 14.0251 4.63898 13.9184 4.45764C13.8171 4.27098 13.6758 4.12431 13.4944 4.01764C13.3184 3.91098 13.1184 3.85764 12.8944 3.85764C12.6704 3.85764 12.4678 3.91098 12.2864 4.01764C12.1104 4.12431 11.9691 4.27098 11.8624 4.45764C11.7558 4.63898 11.7024 4.84698 11.7024 5.08164C11.7024 5.31098 11.7558 5.51631 11.8624 5.69764C11.9691 5.87898 12.1131 6.02564 12.2944 6.13764C12.4758 6.24431 12.6758 6.29764 12.8944 6.29764Z" fill="#FF0000"/>
</svg>
