<svg width="25" height="26" viewBox="0 0 25 26" fill="none" xmlns="http://www.w3.org/2000/svg">
<g clip-path="url(#clip0_210_3159)">
<path d="M21.875 9.875V4.27197C21.875 3.85742 21.7104 3.46045 21.4175 3.16699L19.2075 0.95752C18.9146 0.664551 18.5171 0.5 18.1025 0.5H4.6875C3.82471 0.5 3.125 1.19971 3.125 2.0625V9.875C1.39893 9.875 0 11.2739 0 13V18.4688C0 18.9004 0.349609 19.25 0.78125 19.25H3.125V23.9375C3.125 24.8003 3.82471 25.5 4.6875 25.5H20.3125C21.1753 25.5 21.875 24.8003 21.875 23.9375V19.25H24.2188C24.6504 19.25 25 18.9004 25 18.4688V13C25 11.2739 23.6011 9.875 21.875 9.875ZM18.75 22.375H6.25V17.6875H18.75V22.375ZM18.75 11.4375H6.25V3.625H15.625V5.96875C15.625 6.40039 15.9746 6.75 16.4062 6.75H18.75V11.4375ZM21.0938 14.9531C20.4468 14.9531 19.9219 14.4282 19.9219 13.7812C19.9219 13.1338 20.4468 12.6094 21.0938 12.6094C21.7407 12.6094 22.2656 13.1338 22.2656 13.7812C22.2656 14.4282 21.7407 14.9531 21.0938 14.9531Z" fill="black"/>
</g>
<defs>
<clipPath id="clip0_210_3159">
<rect width="25" height="25" fill="white" transform="translate(0 0.5)"/>
</clipPath>
</defs>
</svg>
